<?xml version="1.0" standalone="no"?>
<!DOCTYPE svg PUBLIC "-//W3C//DTD SVG 20010904//EN"
 "http://www.w3.org/TR/2001/REC-SVG-20010904/DTD/svg10.dtd">
<svg version="1.0" xmlns="http://www.w3.org/2000/svg"
 width="510.000000pt" height="510.000000pt" viewBox="0 0 510.000000 510.000000"
 preserveAspectRatio="xMidYMid meet">
<metadata>
Created by potrace 1.14, written by Peter Selinger 2001-2017
</metadata>
<g transform="translate(0.000000,510.000000) scale(0.100000,-0.100000)"
fill="#000000" stroke="none">
<path d="M200 2550 l0 -2350 2350 0 2350 0 0 2350 0 2350 -2350 0 -2350 0 0
-2350z m3584 1539 c39 -30 33 -71 -19 -129 -21 -24 -75 -113 -75 -124 0 -3 31
-2 69 1 92 8 121 0 121 -33 0 -34 -48 -53 -163 -68 -68 -9 -92 -16 -104 -31
-8 -11 -42 -75 -75 -142 -65 -132 -86 -227 -55 -239 29 -11 82 29 199 148 118
121 138 133 162 96 8 -14 6 -26 -9 -55 -26 -51 -199 -223 -257 -257 -62 -36
-155 -47 -193 -22 -36 24 -65 75 -65 114 l0 34 -50 -45 c-112 -101 -202 -138
-281 -117 -54 15 -79 56 -79 133 0 77 35 146 134 261 42 48 76 92 76 97 0 13
-45 29 -79 29 -25 0 -41 -17 -124 -132 -101 -139 -126 -163 -158 -153 -25 8
-25 54 -1 86 10 13 31 40 45 60 l27 36 -57 -13 c-32 -8 -70 -14 -84 -14 -22 0
-28 -7 -39 -42 -36 -124 -173 -295 -265 -334 -52 -21 -133 -18 -185 9 -144 72
-109 320 69 497 84 83 176 119 254 99 41 -11 77 -56 77 -96 0 -29 31 -34 172
-31 84 2 109 6 113 18 4 8 1 16 -6 19 -22 7 -50 42 -47 59 2 9 26 29 53 44 27
15 77 56 110 92 34 36 69 66 79 66 60 0 73 -54 31 -127 l-26 -43 93 0 c107 0
138 -13 138 -58 0 -31 -13 -52 -92 -154 -102 -132 -177 -298 -133 -298 49 0
228 173 323 312 18 26 32 50 32 54 0 4 -9 18 -21 30 -16 17 -19 29 -14 53 7
34 22 45 76 55 34 6 40 13 95 117 33 61 69 122 81 135 29 31 89 33 127 3z
m-2086 -225 c25 -17 30 -70 11 -106 -12 -21 -11 -21 22 1 60 39 103 54 159 54
143 -1 209 -87 170 -223 -15 -52 -102 -162 -175 -220 -104 -82 -271 -150 -371
-150 -48 0 -36 20 -110 -193 -24 -70 -44 -141 -44 -156 0 -39 -35 -148 -60
-189 -23 -38 -88 -71 -138 -72 -25 0 -35 6 -43 24 -10 21 -4 43 44 153 145
334 357 897 378 1003 7 36 17 71 22 78 14 17 108 15 135 -4z m1442 -1319 c66
-34 80 -115 34 -201 -37 -69 -117 -187 -185 -269 -53 -66 -254 -267 -363 -364
-26 -24 -52 -57 -57 -75 -13 -47 -11 -120 5 -142 14 -19 15 -18 60 3 57 28
188 152 260 247 30 39 65 98 77 131 12 33 35 72 50 87 23 23 33 27 61 22 42
-8 68 -31 68 -59 0 -12 -32 -90 -70 -173 -102 -219 -106 -296 -12 -246 55 29
208 190 267 279 92 142 206 225 307 225 59 0 106 -37 117 -90 l7 -35 131 -3
c104 -2 132 -6 137 -17 15 -40 -41 -71 -144 -83 l-64 -7 -21 -60 c-39 -113
-165 -270 -249 -309 -119 -56 -249 -9 -278 100 l-12 43 -69 -60 c-38 -33 -86
-68 -108 -79 -117 -60 -223 -19 -239 92 l-5 40 -45 -41 c-137 -125 -252 -153
-334 -80 -61 53 -66 144 -15 296 11 36 19 66 18 67 -2 2 -32 1 -65 -2 l-62 -4
-12 -42 c-19 -65 -54 -126 -114 -204 -101 -129 -204 -176 -307 -140 -90 31
-125 94 -116 205 3 38 9 79 13 92 6 21 5 23 -12 17 -10 -5 -62 -14 -114 -22
-162 -24 -157 -22 -169 -52 -32 -81 -175 -474 -187 -512 -8 -25 -14 -59 -14
-76 0 -31 -36 -138 -66 -196 -28 -55 -161 -91 -183 -50 -7 14 -1 40 25 103 29
69 90 222 291 727 4 8 -7 12 -33 12 -43 0 -78 23 -88 56 -15 49 75 103 151 91
32 -6 32 -5 58 66 45 121 143 337 196 433 60 108 152 214 212 243 87 42 200
22 243 -44 41 -63 -2 -195 -111 -339 -72 -96 -243 -285 -291 -321 l-39 -30 70
-6 c39 -3 77 -8 85 -12 11 -5 23 6 43 37 43 69 147 161 203 180 105 36 170 13
197 -69 l14 -40 111 -3 111 -3 80 158 c182 359 329 523 469 523 29 0 66 -7 82
-15z m139 -309 c22 -26 -30 -165 -68 -186 -52 -27 -131 2 -131 48 0 29 138
152 171 152 9 0 22 -6 28 -14z"/>
<path d="M2416 3679 c-136 -124 -211 -320 -141 -364 51 -32 154 51 219 174 39
74 43 107 25 191 -14 65 -31 65 -103 -1z"/>
<path d="M1831 3698 c-70 -36 -151 -109 -197 -178 -46 -68 -109 -189 -102
-196 9 -9 89 29 155 74 75 51 183 166 212 225 23 47 25 97 5 104 -6 2 -39 -11
-73 -29z"/>
<path d="M1929 2382 c-79 -81 -166 -210 -243 -362 -81 -158 -80 -168 8 -77
137 142 321 406 328 471 5 50 -21 41 -93 -32z"/>
<path d="M3012 2410 c-58 -47 -137 -147 -215 -276 -68 -111 -140 -254 -133
-262 19 -18 281 308 376 467 72 122 64 144 -28 71z"/>
<path d="M2128 1871 c-85 -54 -188 -212 -204 -311 -8 -52 14 -90 55 -90 34 0
96 43 139 97 37 47 92 159 92 187 0 36 -22 146 -29 146 -4 0 -28 -13 -53 -29z"/>
<path d="M3609 1870 c-126 -83 -243 -320 -190 -383 17 -21 53 -22 90 -2 70 35
181 203 181 272 0 41 -21 143 -30 143 -3 0 -27 -13 -51 -30z"/>
</g>
</svg>
